<?xml version="1.0" encoding="utf-8"?>
<!-- Generator: Adobe Illustrator 24.0.2, SVG Export Plug-In . SVG Version: 6.00 Build 0)  -->
<svg version="1.1" id="Capa_1" xmlns="http://www.w3.org/2000/svg" xmlns:xlink="http://www.w3.org/1999/xlink" x="0px" y="0px"
	 viewBox="0 0 296 187" style="enable-background:new 0 0 296 187;" xml:space="preserve">
<style type="text/css">
	.st0{fill:#02AA9D;}
	.st1{fill:#444444;}
	.st2{fill:#FCB231;}
</style>
<g>
	<polygon class="st0" points="85.16,81.58 221.93,81.58 221.93,167.23 87.24,167.23 76.87,161.01 74.11,149.96 	"/>
	<rect x="158.38" y="122.33" class="st0" width="5.53" height="7.6"/>
	<polygon class="st1" points="140.42,132.7 143.18,142.37 152.85,138.91 153.06,142.16 155.62,147.2 163.21,147.2 165.77,139.95 
		170.81,138.91 175.65,138.91 179.1,132.7 174.59,126.37 179.1,122.33 175.65,114.74 168.05,114.74 165.98,106.45 158.38,106.45 
		152.85,111.97 148.02,114.74 145.26,114.74 140.42,119.57 147.33,125.1 145.26,129.24 	"/>
	<path d="M174.84,137.7c0.81-1.38,1.5-2.55,2.17-3.7c-5.49-5.04-5.53-9.99,0.1-13.95c-0.75-1.3-1.52-2.63-2.28-3.95
		c-6.31,2.86-11.22,0.1-11.86-6.67c-1.41,0-2.84,0-4.29,0c-1.63,7.05-5.98,9.54-12.14,6.68c-0.73,1.23-1.48,2.48-2.52,4.22
		c5.45,1.21,3.93,5.45,4.1,8.92c0.11,2.34-6.09,6.48-8.29,5.72c-1.79-0.62-2.25-2.76-0.8-4.17c0.64-0.63,1.53-1,2.3-1.5
		c2.34-1.52,2.39-3.18,0.14-4.71c-4.15-2.81-4.16-2.82-1.57-7.29c0.63-1.09,1.27-2.19,1.9-3.29c2.6-4.53,2.59-4.52,7.54-2.46
		c2.28,0.95,3.47,0.11,3.69-2.33c0.46-5.04,0.49-5.03,5.46-5.05c1.27,0,2.53,0,3.8,0c5.28,0,5.28,0,5.95,5.19
		c0.31,2.39,1.85,3.12,4.16,1.98c4.36-2.14,4.35-2.14,6.84,2.15c1.04,1.79,2.04,3.6,3.14,5.36c1.37,2.2,0.97,3.73-1.32,5.1
		c-3.9,2.33-3.9,3.59-0.02,5.88c2.28,1.35,2.75,2.85,1.36,5.08c-1.39,2.25-2.72,4.54-3.98,6.86c-1.17,2.16-2.62,2.53-4.82,1.37
		c-4.22-2.22-5.26-1.65-5.33,2.96c-0.04,2.74-1.31,3.69-3.83,3.63c-2.41-0.06-4.83-0.1-7.25,0c-2.88,0.11-4.19-1.04-4.19-4.05
		c0-4.1-1.18-4.73-4.74-2.81c-1.71,0.92-3.53,1.88-4.74-0.4c-1.11-2.08,0.6-3.06,2.14-3.99c5.16-3.13,6.87-3.2,11.24,0.72
		c1.15,1.03,1.28,3.21,1.99,5.16c1.05,0,2.49,0,3.9,0C164,137.51,168.58,134.87,174.84,137.7z"/>
	<path class="st2" d="M131.44,69.84l-7.6-13.12c0,0,0-11.05,0-11.74c0-0.69,10.36-11.74,10.36-11.74l11.05-2.07l8.98,2.07
		c0,0,5.53,3.45,7.6,9.67s2.07,13.12,2.07,13.12l-9.67,13.81H131.44z"/>
	<rect x="201.2" y="47.74" class="st2" width="9.67" height="62.17"/>
	<path d="M107.8,78.8c2.32,0,4.55-0.28,6.65,0.11c1.15,0.21,2.1,1.56,3.13,2.39c-1.02,0.84-1.94,2.2-3.08,2.41
		c-2.09,0.39-4.31,0.11-7.02,0.11c0,1.66,0,2.99,0,4.33c0,20.16,0,40.32,0,60.48c0,0.92,0.27,1.96-0.07,2.74
		c-0.53,1.2-1.47,2.23-2.23,3.33c-0.93-1.08-2.48-2.05-2.68-3.25c-1.26-7.31-6.2-12-12.94-11.88c-6.49,0.12-11.81,5.17-12.31,11.69
		c-0.51,6.55,3.95,12.28,10.44,13.33c1.24,0.2,2.52,0.29,3.78,0.29c41.34,0.02,82.69,0.02,124.03,0.01c0.91,0,1.83-0.08,3.19-0.14
		c0.07-1.39,0.19-2.71,0.19-4.03c0.01-25.23,0.01-50.46,0.01-75.69c0-0.58-0.01-1.15,0-1.73c0.05-1.93-0.33-4.41,2.52-4.38
		c2.77,0.03,2.53,2.44,2.52,4.41c0,27.3,0,54.61-0.01,81.91c0,4.31-0.4,4.69-4.79,4.69c-42.73,0-85.45,0.01-128.18-0.01
		c-11.39,0-18.9-7.46-18.91-18.77c-0.02-26.5-0.03-52.99,0.01-79.49c0.02-9.54,6.49-16.87,15.7-18.02
		c8.63-1.08,17.07,4.43,19.06,12.97C107.71,70.38,107.49,74.38,107.8,78.8z M102.05,139.16c0.17-0.53,0.35-0.83,0.35-1.12
		c0.01-22.57,0.09-45.14-0.07-67.71c-0.04-5.19-3.11-8.84-7.85-10.83c-8.39-3.51-17.23,2.67-17.29,12.28
		c-0.13,21.65-0.05,43.3-0.03,64.95c0,0.71,0.27,1.41,0.46,2.36C85.96,132.89,94.01,133.01,102.05,139.16z"/>
	<path d="M208.77,48.57c-1.89,0-3.24,0-4.81,0c0,19.31,0,38.46,0,57.82c1.57,0,2.99,0,4.8,0c0-3.7,0-7.23,0-10.77
		c0-9.33,0.01-18.65-0.01-27.98c0-1.96,0.11-4.01,2.66-3.93c2.34,0.07,2.35,2.06,2.35,3.87c-0.01,13.47,0,26.94-0.02,40.41
		c0,0.91-0.04,1.88-0.37,2.71c-3.15,8.03-6.32,16.05-9.65,24.01c-0.4,0.95-1.72,1.95-2.71,2.06c-0.75,0.08-2.04-1.06-2.41-1.94
		c-3.35-8.07-6.57-16.2-9.75-24.34c-0.36-0.92-0.3-2.04-0.3-3.07c-0.01-25.44,0-50.89-0.01-76.33c0-5.5,2.42-9.53,7.38-11.85
		c4.72-2.21,9.22-1.47,13.25,1.75c2.83,2.27,4.47,5.3,4.51,8.96c0.09,8.4,0.14,16.81-0.06,25.21c-0.03,1.15-1.6,2.26-2.46,3.39
		c-0.81-1.19-2.05-2.28-2.31-3.58C208.48,53,208.77,50.89,208.77,48.57z M193.76,48.49c0,19.46,0,38.6,0,57.92c1.61,0,3.03,0,4.5,0
		c0-19.42,0-38.65,0-57.92C196.68,48.49,195.43,48.49,193.76,48.49z M193.8,33.02c4.94,0,9.8,0,14.8,0
		c0.51-3.77-0.37-6.78-3.56-8.75c-2.55-1.58-5.29-1.55-7.81,0.02C194.07,26.27,193.11,29.25,193.8,33.02z M208.62,38.65
		c-5.19,0-10.04,0-14.88,0c0,1.66,0,3,0,4.53c5.03,0,9.89,0,14.88,0C208.62,41.6,208.62,40.25,208.62,38.65z M195.18,111.97
		c1.4,4.93,1.41,4.73,7.74,4.88c3.68,0.09,3.36-2.6,4.4-4.88C203.16,111.97,199.3,111.97,195.18,111.97z M203.39,121.99
		c-1.67,0-2.87,0-4.47,0c0.72,1.81,1.31,3.3,2.23,5.62C202.07,125.3,202.64,123.86,203.39,121.99z"/>
	<path d="M128.07,68.59c-1.05-1.23-1.87-2.17-2.66-3.13c-6.77-8.18-6.97-20.06-0.47-28.45c6.51-8.41,18.04-11.22,27.62-6.63
		c1.15,0.55,2.23,1.56,2.94,2.63c0.3,0.45-0.22,2.08-0.76,2.32c-0.9,0.41-2.28,0.51-3.16,0.11c-3.98-1.85-7.99-2.72-12.38-1.75
		c-13.1,2.89-18.38,18.65-9.68,28.84c1.42,1.66,2.32,3.74,3.54,5.58c0.19,0.29,0.76,0.34,1.54,0.66c0-1.7,0.12-3.12-0.02-4.51
		c-0.5-4.81-1.14-9.6-1.63-14.41c-0.34-3.35,1.18-4.74,4.27-3.4c3.98,1.71,7.59,1.64,11.54-0.03c2.99-1.27,4.41-0.05,4.13,3.21
		c-0.47,5.5-1.17,10.99-1.68,16.49c-0.08,0.83,0.31,1.7,0.49,2.62c1.75-2.36,3.06-4.28,4.53-6.07c4.85-5.93,5.7-12.4,2.64-19.37
		c-0.76-1.74-1.95-3.55,0.42-4.72c2.58-1.28,3.46,0.96,4.24,2.72c3.9,8.85,2.7,17.04-3.34,24.56c-0.69,0.86-1.45,1.68-2.31,2.67
		c1.01,0.78,1.74,1.3,2.42,1.88c3.85,3.22,3.81,8.33,0.15,11.75c-1.13,1.05-2.13,2.61-2.45,4.1c-1.43,6.66-5.37,10.73-11.88,12.53
		c-1.03,0.28-2.17,0.81-2.85,1.59c-4.19,4.77-9.4,7.67-15.59,8.92c-0.9,0.18-1.8,0.43-2.65,0.76c-3.34,1.31-5.17,4.44-4.71,7.97
		c0.43,3.37,3.2,6.02,6.75,6.31c1.83,0.15,3.75-0.23,5.5,0.18c1.06,0.25,1.86,1.57,2.78,2.41c-0.93,0.82-1.82,2.28-2.8,2.34
		c-2.84,0.19-5.82,0.23-8.56-0.43c-5.16-1.24-8.67-6.13-8.87-11.49c-0.2-5.43,3.2-10.38,8.46-12.18c1.74-0.59,3.64-0.75,5.31-1.47
		c3.1-1.34,6.08-2.94,9.9-4.82c-6.79-3.31-10.57-7.57-11.03-14.24c-0.04-0.64-0.75-1.34-1.31-1.81c-5.18-4.33-5.01-9.32,0.49-13.3
		C127.21,69.31,127.46,69.08,128.07,68.59z M133.04,84.03c0.52,6.33,4.96,10.31,10.68,9.91c5.21-0.37,9.1-4.58,8.93-9.91
		C146.19,84.03,139.72,84.03,133.04,84.03z M143.18,73.79c-4.01,0-8.02,0.01-12.03,0c-1.81-0.01-3.53,0.54-3.12,2.58
		c0.19,0.97,1.95,2.28,3.03,2.31c7.9,0.2,15.81,0.22,23.71,0c1.12-0.03,2.21-1.63,3.31-2.5c-1.07-0.79-2.09-2.19-3.21-2.27
		C150.99,73.62,147.08,73.79,143.18,73.79z M147.44,52.95c-3.19,0-5.96,0-9.01,0c0.56,5,1.15,10.19,1.74,15.46c2.02,0,3.68,0,5.59,0
		C146.34,63.03,146.91,57.84,147.44,52.95z"/>
	<path d="M179.01,159.76c-4.83,0-9.66-0.02-14.5,0.01c-1.86,0.01-3.75-0.16-3.75-2.48c0-2.26,1.79-2.55,3.7-2.54
		c9.09,0.04,18.18,0.03,27.27,0.01c5.2-0.01,6.78-1.6,6.84-6.77c0.02-1.26-0.21-2.64,0.23-3.75c0.34-0.86,1.54-1.89,2.36-1.89
		c0.81,0,2.2,1.11,2.33,1.89c1.33,8.31-1.57,15.86-11.37,15.54C187.75,159.65,183.38,159.77,179.01,159.76z"/>
	<path d="M160.7,119.37c4.2,0.02,7.43,3.22,7.48,7.4c0.05,4.31-3.32,7.77-7.56,7.75c-4.04-0.02-7.49-3.44-7.55-7.48
		C152.99,122.78,156.41,119.35,160.7,119.37z M160.63,123.43c-1.09,1.56-2.28,2.52-2.22,3.39c0.06,0.88,1.36,1.67,2.12,2.5
		c0.87-0.84,2.23-1.57,2.45-2.56C163.13,126.04,161.79,124.98,160.63,123.43z"/>
	<path d="M125.12,142.16c4.31-0.06,7.71,3.3,7.68,7.58c-0.03,4.1-3.36,7.47-7.45,7.53c-4.19,0.06-7.73-3.45-7.7-7.65
		C117.68,145.51,120.98,142.22,125.12,142.16z M128.74,149.9c-1.52-1.25-2.52-2.64-3.24-2.52c-1.01,0.18-1.82,1.49-2.71,2.32
		c0.8,0.8,1.53,2.12,2.42,2.23C126.07,152.05,127.09,150.92,128.74,149.9z"/>
	<path d="M174.6,83.78c-2.07,0-4.18,0.24-6.19-0.1c-0.95-0.16-1.71-1.41-2.56-2.17c0.83-0.89,1.62-2.5,2.51-2.56
		c4.12-0.28,8.28-0.28,12.4,0c0.9,0.06,1.7,1.65,2.55,2.53c-0.84,0.77-1.59,2.04-2.52,2.2C178.78,84.02,176.67,83.78,174.6,83.78z"
		/>
	<path d="M142.9,17.05c1.14,1.56,2.35,2.5,2.31,3.37c-0.04,0.89-1.32,1.72-2.06,2.58c-0.9-0.83-2.3-1.54-2.53-2.52
		C140.44,19.75,141.77,18.66,142.9,17.05z"/>
	<path d="M131.27,24.57c-1.58,1.17-2.51,2.39-3.35,2.33c-0.92-0.07-1.77-1.3-2.64-2.03c0.83-0.91,1.52-2.28,2.53-2.58
		C128.49,22.1,129.61,23.42,131.27,24.57z"/>
	<path d="M161.62,24.86c-1.66,1.04-2.69,2.19-3.52,2.07c-0.91-0.14-1.65-1.45-2.46-2.25c0.9-0.84,1.7-2.15,2.72-2.36
		C159.06,22.18,160.07,23.58,161.62,24.86z"/>
	<path d="M120.13,35.66c-1.54,1.19-2.45,2.45-3.3,2.41c-0.92-0.04-1.77-1.3-2.66-2.03c0.82-0.93,1.49-2.32,2.5-2.62
		C117.35,33.22,118.5,34.54,120.13,35.66z"/>
	<path d="M173.25,47.44c1.15,1.55,2.37,2.48,2.34,3.36c-0.04,0.89-1.32,1.72-2.06,2.57c-0.9-0.82-2.29-1.52-2.53-2.5
		C170.82,50.14,172.13,49.05,173.25,47.44z"/>
	<path d="M120.15,66.06c-1.57,1.17-2.49,2.39-3.34,2.34c-0.91-0.05-1.76-1.3-2.63-2.02c0.82-0.91,1.51-2.28,2.52-2.58
		C117.38,63.6,118.5,64.92,120.15,66.06z"/>
	<path d="M172.72,35.66c-1.55,1.19-2.46,2.44-3.3,2.39c-0.92-0.05-1.77-1.3-2.65-2.02c0.82-0.92,1.5-2.29,2.5-2.6
		C169.94,33.22,171.08,34.54,172.72,35.66z"/>
	<path d="M116.08,50.83c-1.56,1.19-2.47,2.43-3.31,2.38c-0.92-0.05-1.78-1.28-2.66-2c0.82-0.92,1.49-2.3,2.5-2.6
		C113.28,48.41,114.41,49.71,116.08,50.83z"/>
	<path d="M172.7,66.58c-1.72,0.93-2.81,2.01-3.63,1.83c-0.9-0.2-1.55-1.54-2.32-2.39c0.95-0.79,1.83-2.04,2.87-2.19
		C170.32,63.73,171.24,65.2,172.7,66.58z"/>
	<path class="st0" d="M102.05,139.16c-8.04-6.15-16.09-6.27-24.42-0.07c-0.19-0.95-0.46-1.66-0.46-2.36
		c-0.02-21.65-0.1-43.3,0.03-64.95c0.06-9.61,8.9-15.79,17.29-12.28c4.74,1.98,7.81,5.64,7.85,10.83
		c0.16,22.57,0.08,45.14,0.07,67.71C102.41,138.33,102.23,138.62,102.05,139.16z"/>
	<path class="st2" d="M193.76,48.49c1.67,0,2.93,0,4.5,0c0,19.27,0,38.49,0,57.92c-1.47,0-2.89,0-4.5,0
		C193.76,87.09,193.76,67.95,193.76,48.49z"/>
	<path class="st1" d="M193.8,33.02c-0.69-3.76,0.27-6.75,3.42-8.73c2.52-1.58,5.25-1.6,7.81-0.02c3.2,1.97,4.07,4.98,3.56,8.75
		C203.61,33.02,198.75,33.02,193.8,33.02z"/>
	<path class="st2" d="M208.62,38.65c0,1.61,0,2.95,0,4.53c-4.99,0-9.85,0-14.88,0c0-1.52,0-2.86,0-4.53
		C198.58,38.65,203.43,38.65,208.62,38.65z"/>
	<path class="st2" d="M195.18,111.97c4.12,0,7.98,0,12.14,0c-1.04,2.29-0.72,4.97-4.4,4.88C196.59,116.7,196.58,116.9,195.18,111.97
		z"/>
	<path class="st2" d="M203.39,121.99c-0.74,1.87-1.32,3.31-2.24,5.62c-0.92-2.32-1.52-3.81-2.23-5.62
		C200.52,121.99,201.72,121.99,203.39,121.99z"/>
	<path class="st1" d="M133.04,84.03c6.69,0,13.15,0,19.61,0c0.16,5.33-3.72,9.54-8.93,9.91C138,94.34,133.56,90.36,133.04,84.03z"/>
	<path class="st1" d="M143.18,73.79c3.9,0,7.8-0.18,11.68,0.11c1.12,0.08,2.14,1.48,3.21,2.27c-1.1,0.87-2.18,2.47-3.31,2.5
		c-7.9,0.22-15.81,0.2-23.71,0c-1.08-0.03-2.84-1.34-3.03-2.31c-0.41-2.04,1.32-2.58,3.12-2.58
		C135.16,73.8,139.17,73.79,143.18,73.79z"/>
</g>
</svg>
