<?xml version="1.0" encoding="utf-8"?>
<!-- Generator: Adobe Illustrator 24.0.2, SVG Export Plug-In . SVG Version: 6.00 Build 0)  -->
<svg version="1.1" id="Capa_1" xmlns="http://www.w3.org/2000/svg" xmlns:xlink="http://www.w3.org/1999/xlink" x="0px" y="0px"
	 viewBox="0 0 296 187" style="enable-background:new 0 0 296 187;" xml:space="preserve">
<style type="text/css">
	.st0{fill:#1F4152;}
	.st1{fill:#CCD4D0;}
	.st2{fill:#87C3E5;}
	.st3{fill:#1C3E52;}
	.st4{fill:#FAFCFA;}
	.st5{fill:#E7E8E8;}
	.st6{fill:#737273;}
	.st7{fill:#02AA9D;}
	.st8{fill:#FCB231;}
	.st9{fill:#6FC730;}
	.st10{fill:#F1495B;}
	.st11{fill:#303030;}
</style>
<g>
	<path class="st0" d="M240.73,20c4.5,0.81,8.47,5.05,8.93,9.69c0.17,1.73,0.12,3.49,0.12,5.23c0,38.9-0.01,77.79,0.03,116.69
		c0,1.68-0.57,3.52,0.84,4.99c-1.42,0.69-2.94,0.44-4.43,0.44c-68.04,0.01-136.08,0.02-204.12-0.01c-2.73,0-5.49,0.36-8.2-0.31
		c0.06-2.24,0.16-4.48,0.16-6.72c0.01-38.63,0.02-77.27-0.02-115.9c0-3.61,0.71-6.94,2.8-9.88c1.63-2.29,3.67-4.06,6.68-4.24
		C109.27,19.99,175,19.99,240.73,20z M239.07,40.99c0.05-1.86-0.06-3.75,0.19-5.59c0.46-3.35-0.71-4.3-4.18-4.29
		c-60.22,0.12-120.45,0.08-180.67,0.08c-9.83,0-9.83,0.01-9.2,9.8c-0.04,34.65-0.06,69.3-0.18,103.95
		c-0.01,2.47,1.16,2.46,2.95,2.46c62.77-0.03,125.55-0.04,188.32,0.04c2.72,0,2.93-1.08,2.93-3.26
		c-0.06-23.56-0.02-47.12-0.04-70.68C239.18,62.68,239.12,51.84,239.07,40.99z M144.86,25.48c0.05-1.86-0.6-3.14-2.69-3.18
		c-2.02-0.04-3,1.19-3,2.98c0,1.79,0.99,2.99,3.01,2.98C144.04,28.25,144.82,27.24,144.86,25.48z"/>
	<path class="st1" d="M260.71,159.01c0.64,8.12-1.11,10-9.24,10C178.98,169,106.49,168.99,34,168.98c-1.12,0-2.25,0.02-3.37-0.01
		c-5.27-0.16-7.21-2.08-7.25-7.25c-0.01-1.36,0.13-2.73,0.19-4.09c31.3,0.02,62.6,0.02,93.91,0.07c2.68,0,5.77-1.02,7.19,2.76
		c0.36,0.96,1.96,0.89,3.1,0.89c9.6,0,19.21,0.01,28.81-0.01c1.39,0,3.09-0.03,3.54-1.51c0.72-2.33,2.37-2.16,4.13-2.16
		c30.8,0.01,61.61,0.02,92.41,0.03C258.16,157.7,259.68,157.57,260.71,159.01z"/>
	<path class="st2" d="M260.71,159.01c-1.03-1.44-2.54-1.31-4.05-1.31c-30.8,0-61.61-0.01-92.41-0.03c-1.76,0-3.41-0.17-4.13,2.16
		c-0.45,1.48-2.15,1.5-3.54,1.51c-9.6,0.01-19.21,0.01-28.81,0.01c-1.14,0-2.74,0.07-3.1-0.89c-1.42-3.78-4.51-2.76-7.19-2.76
		c-31.3-0.05-62.6-0.05-93.91-0.07c1.71-1.92,3.92-0.62,5.89-0.89c1.45-0.2,2.96-0.02,4.44-0.01c2.71,0.67,5.47,0.31,8.2,0.31
		c68.04,0.03,136.08,0.02,204.12,0.01c1.48,0,3.01,0.25,4.43-0.44c2.51,0.71,5.08,0.16,7.62,0.35
		C259.58,157.04,261.18,156.81,260.71,159.01z"/>
	<path class="st3" d="M240.73,20c-65.73,0-131.46-0.01-197.2-0.02c0.35-0.27,0.7-0.53,1.04-0.79c30.58,0.03,61.17,0.06,91.76,0.09
		c34.71,0.04,69.41,0.07,104.12,0.11C240.53,19.6,240.62,19.8,240.73,20z"/>
	<path class="st4" d="M239.07,40.99c0.04,10.84,0.11,21.68,0.12,32.53c0.02,23.56-0.02,47.12,0.04,70.68
		c0.01,2.18-0.21,3.26-2.93,3.26c-62.77-0.08-125.55-0.07-188.32-0.04c-1.79,0-2.96,0-2.95-2.46c0.12-34.65,0.14-69.3,0.18-103.95
		C109.83,41,174.45,41,239.07,40.99z M144.03,63.46c-27.58,0-55.16,0.05-82.75-0.07c-2.99-0.01-3.8,0.83-3.75,3.73
		c0.17,8.72,0.16,17.45,0.01,26.18c-0.05,2.84,0.63,3.89,3.71,3.84c10.98-0.18,21.96-0.05,32.95-0.05
		c43.56,0,87.11-0.04,130.67,0.07c3.45,0.01,4.81-0.61,4.67-4.41c-0.3-8.47-0.23-16.95-0.03-25.43c0.07-3.04-0.68-3.95-3.86-3.94
		C198.45,63.52,171.24,63.46,144.03,63.46z M200.96,100.25c0,0.01,0,0.02,0,0.03c-8.48,0-16.96,0.08-25.44-0.04
		c-2.75-0.04-3.7,0.89-3.65,3.68c0.15,8.72,0.12,17.44,0.02,26.16c-0.03,2.44,0.5,3.58,3.29,3.57c16.96-0.1,33.92-0.08,50.88,0.02
		c2.64,0.01,3.46-0.92,3.43-3.48c-0.11-8.72-0.15-17.44,0.01-26.16c0.06-2.96-0.89-3.89-3.85-3.82
		C217.42,100.36,209.19,100.25,200.96,100.25z M143.16,133.52c0,0.01,0,0.01,0,0.02c8.1,0,16.21-0.05,24.31,0.03
		c2.01,0.02,2.91-0.49,2.88-2.7c-0.09-9.34-0.07-18.68,0-28.02c0.01-1.9-0.58-2.64-2.55-2.63c-16.21,0.06-32.41,0.07-48.62,0.03
		c-2.09-0.01-2.8,0.68-2.77,2.82c0.1,9.09,0.11,18.18,0,27.27c-0.03,2.43,0.73,3.27,3.19,3.24
		C127.45,133.45,135.3,133.52,143.16,133.52z M84.44,100.21c-7.86,0-15.73,0.07-23.59-0.04c-2.37-0.03-3.28,0.6-3.24,3.15
		c0.15,8.97,0.12,17.95,0.02,26.93c-0.03,2.3,0.46,3.33,3.07,3.32c15.85-0.11,31.7-0.1,47.55-0.03c2.39,0.01,3.32-0.69,3.29-3.19
		c-0.11-8.97-0.14-17.95,0.02-26.93c0.05-2.79-1.1-3.28-3.54-3.25C100.17,100.28,92.3,100.21,84.44,100.21z M110.7,56.69
		c15.34,0,30.69,0,46.03,0c6.77,0,6.58-0.01,6.85-6.75c0.13-3.21-0.87-3.8-3.9-3.79c-31.68,0.12-63.37,0.07-95.05,0.07
		c-7,0-6.82,0.01-7.06,6.94c-0.11,3.07,0.93,3.61,3.74,3.59C77.76,56.63,94.23,56.69,110.7,56.69z M198.27,46.23
		c-8.11,0-16.22,0-24.33,0c-6.99,0-6.81,0.01-7.04,6.95c-0.1,3.09,0.98,3.6,3.75,3.58c17.09-0.12,34.19-0.06,51.28-0.06
		c7.74,0,7.65,0,7.56-7.89c-0.02-2.2-0.74-2.64-2.77-2.62C217.23,46.28,207.75,46.23,198.27,46.23z M200.78,135.14
		c-8.6,0-17.21,0.07-25.81-0.05c-2.29-0.03-3.19,0.66-2.96,2.96c0.2,1.94-0.31,4.03,2.94,3.9c5.23-0.21,10.49-0.31,15.71,0
		c12.25,0.74,24.31-2.52,36.55-1.48c2.32,0.2,2.19-1.2,2.29-2.8c0.12-1.95-0.56-2.59-2.53-2.57
		C218.23,135.19,209.51,135.14,200.78,135.14z M143.79,135.13c-8.1,0-16.2-0.02-24.3,0.02c-1.11,0.01-2.5-0.53-2.99,1.33
		c-0.94,3.54,0.36,5.44,3.96,5.41c15.81-0.12,31.64,0.64,47.41-1.35c2.29-0.29,2.49-1.16,2.57-3.01c0.09-2.15-0.96-2.44-2.71-2.43
		C159.75,135.16,151.77,135.13,143.79,135.13z M84.78,135.13c-8.1,0-16.21,0.08-24.31-0.05c-2.31-0.04-3.2,0.67-2.93,2.96
		c0.22,1.91-0.33,4.01,2.93,3.91c6.35-0.2,12.73-0.37,19.07,0.01c10.02,0.6,19.82-2.51,29.83-1.51c2.05,0.2,2.09-1.13,2.15-2.62
		c0.07-1.76-0.29-2.77-2.43-2.74C100.98,135.19,92.88,135.13,84.78,135.13z"/>
	<path class="st5" d="M239.07,40.99c-64.62,0-129.24,0-193.86,0c-0.63-9.79-0.63-9.8,9.2-9.8c60.22,0,120.45,0.03,180.67-0.08
		c3.47-0.01,4.64,0.94,4.18,4.29C239.01,37.24,239.12,39.13,239.07,40.99z M72.61,36.34c-0.35-1.47-0.88-2.82-2.73-2.91
		c-1.85-0.09-2.81,1.04-2.89,2.69c-0.09,1.78,1.21,2.72,2.82,2.79C71.34,38.97,72.19,37.85,72.61,36.34z M60.01,33.55
		c-0.85,0.24-2.02,0.9-1.94,2.57c0.08,1.77,1.37,2.81,2.92,2.7c1.34-0.1,2.66-1.23,2.37-2.8C63.12,34.75,62.38,33.43,60.01,33.55z
		 M51.89,33.54c-1.69,0.07-2.59,1.1-2.66,2.55c-0.08,1.58,1.02,2.5,2.59,2.49c1.41-0.01,2.35-0.88,2.4-2.3
		C54.27,34.77,53.47,33.75,51.89,33.54z M234.55,38.51c-1.25-1.64-0.52-3.1-0.02-4.98c-1.73,0.68-3.2,0.97-4.99,0.2
		c1.21,1.64,0.51,3.1,0,5C231.29,37.94,232.76,37.82,234.55,38.51z"/>
	<path class="st6" d="M144.86,25.48c-0.03,1.76-0.82,2.77-2.68,2.78c-2.02,0.01-3.01-1.19-3.01-2.98c0-1.79,0.99-3.02,3-2.98
		C144.25,22.35,144.91,23.63,144.86,25.48z"/>
	<path class="st7" d="M144.03,63.46c27.21,0,54.42,0.06,81.62-0.08c3.17-0.02,3.93,0.9,3.86,3.94c-0.21,8.47-0.28,16.96,0.03,25.43
		c0.14,3.8-1.22,4.42-4.67,4.41c-43.56-0.11-87.11-0.07-130.67-0.07c-10.98,0-21.97-0.13-32.95,0.05c-3.08,0.05-3.76-1-3.71-3.84
		c0.16-8.72,0.16-17.45-0.01-26.18c-0.06-2.9,0.76-3.74,3.75-3.73C88.87,63.51,116.45,63.46,144.03,63.46z"/>
	<path class="st8" d="M200.96,100.25c8.23,0,16.46,0.11,24.69-0.06c2.96-0.06,3.91,0.86,3.85,3.82c-0.16,8.72-0.13,17.44-0.01,26.16
		c0.03,2.56-0.79,3.5-3.43,3.48c-16.96-0.1-33.92-0.12-50.88-0.02c-2.79,0.02-3.31-1.13-3.29-3.57c0.1-8.72,0.13-17.44-0.02-26.16
		c-0.05-2.79,0.9-3.72,3.65-3.68c8.48,0.12,16.96,0.04,25.44,0.04C200.96,100.27,200.96,100.26,200.96,100.25z"/>
	<path class="st9" d="M143.16,133.52c-7.85,0-15.71-0.08-23.56,0.04c-2.46,0.04-3.22-0.8-3.19-3.24c0.12-9.09,0.11-18.18,0-27.27
		c-0.02-2.14,0.69-2.82,2.77-2.82c16.21,0.04,32.41,0.04,48.62-0.03c1.98-0.01,2.57,0.73,2.55,2.63c-0.07,9.34-0.09,18.68,0,28.02
		c0.02,2.21-0.87,2.72-2.88,2.7c-8.1-0.08-16.21-0.03-24.31-0.03C143.16,133.53,143.16,133.53,143.16,133.52z"/>
	<path class="st10" d="M84.44,100.21c7.86,0,15.73,0.08,23.59-0.04c2.44-0.04,3.59,0.46,3.54,3.25c-0.16,8.97-0.13,17.95-0.02,26.93
		c0.03,2.49-0.91,3.2-3.29,3.19c-15.85-0.07-31.7-0.08-47.55,0.03c-2.6,0.02-3.09-1.02-3.07-3.32c0.1-8.97,0.13-17.95-0.02-26.93
		c-0.04-2.55,0.87-3.18,3.24-3.15C68.72,100.27,76.58,100.21,84.44,100.21z"/>
	<path class="st11" d="M110.7,56.69c-16.47,0-32.93-0.07-49.4,0.06c-2.81,0.02-3.85-0.52-3.74-3.59c0.24-6.93,0.06-6.94,7.06-6.94
		c31.68,0,63.37,0.05,95.05-0.07c3.03-0.01,4.03,0.57,3.9,3.79c-0.27,6.74-0.07,6.75-6.85,6.75
		C141.38,56.69,126.04,56.69,110.7,56.69z"/>
	<path class="st11" d="M198.27,46.23c9.48,0,18.97,0.06,28.45-0.04c2.03-0.02,2.74,0.42,2.77,2.62c0.09,7.89,0.18,7.89-7.56,7.89
		c-17.09,0-34.19-0.06-51.28,0.06c-2.78,0.02-3.86-0.49-3.75-3.58c0.23-6.94,0.05-6.95,7.04-6.95
		C182.05,46.23,190.16,46.23,198.27,46.23z"/>
	<path class="st6" d="M200.78,135.14c8.73,0,17.46,0.05,26.18-0.04c1.97-0.02,2.65,0.62,2.53,2.57c-0.1,1.6,0.03,3-2.29,2.8
		c-12.24-1.04-24.3,2.21-36.55,1.48c-5.22-0.31-10.48-0.21-15.71,0c-3.25,0.13-2.74-1.96-2.94-3.9c-0.24-2.3,0.67-2.99,2.96-2.96
		C183.57,135.21,192.17,135.14,200.78,135.14z"/>
	<path class="st6" d="M143.79,135.13c7.98,0,15.95,0.03,23.93-0.02c1.75-0.01,2.81,0.27,2.71,2.43c-0.08,1.85-0.28,2.72-2.57,3.01
		c-15.77,1.99-31.6,1.23-47.41,1.35c-3.6,0.03-4.89-1.87-3.96-5.41c0.49-1.86,1.88-1.32,2.99-1.33
		C127.59,135.11,135.69,135.13,143.79,135.13z"/>
	<path class="st6" d="M84.78,135.13c8.1,0,16.21,0.06,24.31-0.03c2.14-0.03,2.49,0.98,2.43,2.74c-0.06,1.48-0.1,2.82-2.15,2.62
		c-10.01-1-19.81,2.11-29.83,1.51c-6.33-0.38-12.72-0.21-19.07-0.01c-3.26,0.1-2.71-2.01-2.93-3.91c-0.26-2.29,0.62-3,2.93-2.96
		C68.57,135.2,76.68,135.13,84.78,135.13z"/>
	<path class="st9" d="M72.61,36.34c-0.42,1.51-1.27,2.63-2.8,2.56c-1.61-0.07-2.91-1.01-2.82-2.79c0.09-1.64,1.04-2.78,2.89-2.69
		C71.73,33.52,72.26,34.87,72.61,36.34z"/>
	<path class="st8" d="M60.01,33.55c2.37-0.12,3.11,1.2,3.35,2.46c0.29,1.57-1.03,2.71-2.37,2.8c-1.55,0.11-2.84-0.93-2.92-2.7
		C57.99,34.46,59.16,33.8,60.01,33.55z"/>
	<path class="st10" d="M51.89,33.54c1.59,0.21,2.38,1.22,2.33,2.75c-0.05,1.42-0.99,2.29-2.4,2.3c-1.57,0.01-2.67-0.92-2.59-2.49
		C49.29,34.65,50.2,33.61,51.89,33.54z"/>
	<path class="st1" d="M234.55,38.51c-1.8-0.69-3.26-0.57-5.01,0.22c0.5-1.91,1.21-3.36,0-5c1.79,0.77,3.26,0.48,4.99-0.2
		C234.03,35.41,233.3,36.87,234.55,38.51z"/>
</g>
</svg>
